<svg width="50" height="50" viewBox="0 0 46 46" fill="none" xmlns="http://www.w3.org/2000/svg">
<path d="M23 43.8334C28.4167 43.8334 33.3333 41.7709 37.0417 38.375C36.8333 36.4167 35.5833 34.5 33.3542 33C27.6875 29.2084 18.3542 29.2084 12.6458 33C10.4167 34.5 9.16666 36.4167 8.95832 38.375C12.6667 41.7709 17.5833 43.8334 23 43.8334ZM23 43.8334C34.5059 43.8334 43.8333 34.506 43.8333 23C43.8333 11.4941 34.5059 2.16669 23 2.16669C11.4941 2.16669 2.16666 11.4941 2.16666 23C2.16666 34.506 11.4941 43.8334 23 43.8334ZM23.25 24.625C23.1042 24.6042 22.9167 24.6042 22.75 24.625C19.0833 24.5 16.1667 21.5 16.1667 17.8125C16.1667 14.0417 19.2083 10.9792 23 10.9792C26.7708 10.9792 29.8333 14.0417 29.8333 17.8125C29.8125 21.5 26.9167 24.5 23.25 24.625Z" stroke="white" stroke-width="3" stroke-linecap="round" stroke-linejoin="round"/>
</svg>
