<svg width="67" height="50" viewBox="0 0 67 50" fill="none" xmlns="http://www.w3.org/2000/svg">
<path d="M0 2.27273C0 1.66996 0.293868 1.09189 0.816955 0.665667C1.34004 0.239448 2.0495 0 2.78926 0H64.1529C64.8926 0 65.6021 0.239448 66.1252 0.665667C66.6483 1.09189 66.9421 1.66996 66.9421 2.27273C66.9421 2.87549 66.6483 3.45357 66.1252 3.87979C65.6021 4.30601 64.8926 4.54545 64.1529 4.54545H2.78926C2.0495 4.54545 1.34004 4.30601 0.816955 3.87979C0.293868 3.45357 0 2.87549 0 2.27273ZM0 25C0 24.3972 0.293868 23.8192 0.816955 23.3929C1.34004 22.9667 2.0495 22.7273 2.78926 22.7273H64.1529C64.8926 22.7273 65.6021 22.9667 66.1252 23.3929C66.6483 23.8192 66.9421 24.3972 66.9421 25C66.9421 25.6028 66.6483 26.1808 66.1252 26.6071C65.6021 27.0333 64.8926 27.2727 64.1529 27.2727H2.78926C2.0495 27.2727 1.34004 27.0333 0.816955 26.6071C0.293868 26.1808 0 25.6028 0 25ZM2.78926 45.4545C2.0495 45.4545 1.34004 45.694 0.816955 46.1202C0.293868 46.5464 0 47.1245 0 47.7273C0 48.33 0.293868 48.9081 0.816955 49.3343C1.34004 49.7606 2.0495 50 2.78926 50H64.1529C64.8926 50 65.6021 49.7606 66.1252 49.3343C66.6483 48.9081 66.9421 48.33 66.9421 47.7273C66.9421 47.1245 66.6483 46.5464 66.1252 46.1202C65.6021 45.694 64.8926 45.4545 64.1529 45.4545H2.78926Z" fill="white"/>
</svg>
