<svg width="50" height="50" viewBox="0 0 46 46" fill="none" xmlns="http://www.w3.org/2000/svg">
<path d="M34.4584 11.5416H34.4792M12.5834 2.16663H33.4167C39.1697 2.16663 43.8334 6.83033 43.8334 12.5833V33.4166C43.8334 39.1696 39.1697 43.8333 33.4167 43.8333H12.5834C6.83045 43.8333 2.16675 39.1696 2.16675 33.4166V12.5833C2.16675 6.83033 6.83045 2.16663 12.5834 2.16663ZM31.3334 21.6875C31.5905 23.4213 31.2944 25.1921 30.4871 26.7479C29.6798 28.3037 28.4025 29.5654 26.8368 30.3534C25.2711 31.1415 23.4968 31.4158 21.7663 31.1373C20.0358 30.8588 18.4371 30.0418 17.1977 28.8024C15.9582 27.563 15.1412 25.9643 14.8627 24.2337C14.5843 22.5032 14.8586 20.7289 15.6466 19.1632C16.4346 17.5976 17.6963 16.3203 19.2521 15.513C20.808 14.7057 22.5787 14.4095 24.3126 14.6666C26.0812 14.9289 27.7185 15.753 28.9828 17.0173C30.247 18.2815 31.0712 19.9189 31.3334 21.6875Z" stroke="white" stroke-opacity="0.5" stroke-width="4" stroke-linecap="round" stroke-linejoin="round"/>
</svg>
