<svg width="50" height="50" viewBox="0 0 42 30" fill="none" xmlns="http://www.w3.org/2000/svg">
<path d="M16.8334 21.25L27.6459 15L16.8334 8.74996V21.25ZM40.9168 4.93746C41.1876 5.91663 41.3751 7.22913 41.5001 8.89579C41.6459 10.5625 41.7084 12 41.7084 13.25L41.8334 15C41.8334 19.5625 41.5001 22.9166 40.9168 25.0625C40.3959 26.9375 39.1876 28.1458 37.3126 28.6666C36.3334 28.9375 34.5418 29.125 31.7918 29.25C29.0834 29.3958 26.6042 29.4583 24.3126 29.4583L21.0001 29.5833C12.2709 29.5833 6.83342 29.25 4.68758 28.6666C2.81258 28.1458 1.60425 26.9375 1.08341 25.0625C0.812582 24.0833 0.625082 22.7708 0.500082 21.1041C0.354248 19.4375 0.291748 18 0.291748 16.75L0.166748 15C0.166748 10.4375 0.500082 7.08329 1.08341 4.93746C1.60425 3.06246 2.81258 1.85413 4.68758 1.33329C5.66675 1.06246 7.45842 0.874959 10.2084 0.749959C12.9167 0.604126 15.3959 0.541626 17.6876 0.541626L21.0001 0.416626C29.7292 0.416626 35.1668 0.749959 37.3126 1.33329C39.1876 1.85413 40.3959 3.06246 40.9168 4.93746Z" fill="#BCBCBC"/>
</svg>
