<svg width="50" height="50" viewBox="0 0 50 50" fill="none" xmlns="http://www.w3.org/2000/svg">
<path d="M0 0H10.1851L11.3503 4.54545H50L42.1623 29.5455H16.6332L15.5642 34.0909H47.0347V38.6364H10.0911L12.7549 27.2977L6.91837 4.54545H0V0ZM16.599 25H39.0794L44.0694 9.09091H12.5176L16.599 25ZM8.55176 45.4545C8.55176 44.249 9.00225 43.0929 9.80414 42.2404C10.606 41.388 11.6936 40.9091 12.8276 40.9091C13.9617 40.9091 15.0493 41.388 15.8511 42.2404C16.653 43.0929 17.1035 44.249 17.1035 45.4545C17.1035 46.6601 16.653 47.8162 15.8511 48.6687C15.0493 49.5211 13.9617 50 12.8276 50C11.6936 50 10.606 49.5211 9.80414 48.6687C9.00225 47.8162 8.55176 46.6601 8.55176 45.4545ZM38.4829 45.4545C38.4829 44.249 38.9334 43.0929 39.7353 42.2404C40.5372 41.388 41.6248 40.9091 42.7588 40.9091C43.8928 40.9091 44.9804 41.388 45.7823 42.2404C46.5842 43.0929 47.0347 44.249 47.0347 45.4545C47.0347 46.6601 46.5842 47.8162 45.7823 48.6687C44.9804 49.5211 43.8928 50 42.7588 50C41.6248 50 40.5372 49.5211 39.7353 48.6687C38.9334 47.8162 38.4829 46.6601 38.4829 45.4545Z" fill="white"/>
</svg>
