<svg width="50" height="50" viewBox="0 0 50 50" fill="none" xmlns="http://www.w3.org/2000/svg">
<path fill-rule="evenodd" clip-rule="evenodd" d="M25.0417 29.7586L44.2466 48.9635C44.8869 49.5819 45.7445 49.9241 46.6346 49.9163C47.5247 49.9086 48.3762 49.5516 49.0056 48.9221C49.6351 48.2927 49.9921 47.4412 49.9999 46.5511C50.0076 45.661 49.6654 44.8034 49.047 44.1631L29.8421 24.9582L49.047 5.75328C49.6654 5.113 50.0076 4.25543 49.9999 3.36531C49.9921 2.47518 49.6351 1.62369 49.0056 0.994254C48.3762 0.36482 47.5247 0.00777427 46.6346 3.93391e-05C45.7445 -0.00769559 44.8869 0.334498 44.2466 0.952898L25.0417 20.1578L5.83678 0.952898C5.19362 0.349785 4.34102 0.0205429 3.45944 0.0348584C2.57785 0.0491738 1.73639 0.405925 1.11315 1.0296C0.489919 1.65328 0.133762 2.49499 0.12007 3.37659C0.106378 4.25818 0.436224 5.11055 1.03979 5.75328L20.2413 24.9582L1.0364 44.1631C0.712154 44.4763 0.453518 44.8509 0.275597 45.2651C0.0976762 45.6793 0.00402168 46.1248 0.000104655 46.5755C-0.00381237 47.0263 0.0820854 47.4733 0.252782 47.8905C0.423478 48.3078 0.675565 48.6868 0.994317 49.0056C1.31307 49.3243 1.69212 49.5764 2.10934 49.7471C2.52656 49.9178 2.9736 50.0037 3.42437 49.9998C3.87514 49.9959 4.32062 49.9022 4.73481 49.7243C5.149 49.5464 5.52361 49.2877 5.83678 48.9635L25.0417 29.7586Z" fill="white"/>
</svg>
