<svg width="50" height="50" viewBox="0 0 46 44" fill="none" xmlns="http://www.w3.org/2000/svg">
<path d="M31.3334 14.6666C34.6486 14.6666 37.828 15.9836 40.1722 18.3278C42.5165 20.672 43.8334 23.8514 43.8334 27.1666V41.75H35.5001V27.1666C35.5001 26.0616 35.0611 25.0017 34.2797 24.2203C33.4983 23.4389 32.4385 23 31.3334 23C30.2283 23 29.1685 23.4389 28.3871 24.2203C27.6057 25.0017 27.1667 26.0616 27.1667 27.1666V41.75H18.8334V27.1666C18.8334 23.8514 20.1504 20.672 22.4946 18.3278C24.8388 15.9836 28.0182 14.6666 31.3334 14.6666Z" stroke="white" stroke-opacity="0.5" stroke-width="3" stroke-linecap="round" stroke-linejoin="round"/>
<path d="M10.5001 16.75H2.16675V41.75H10.5001V16.75Z" stroke="white" stroke-opacity="0.5" stroke-width="3" stroke-linecap="round" stroke-linejoin="round"/>
<path d="M6.33341 10.5C8.6346 10.5 10.5001 8.63448 10.5001 6.33329C10.5001 4.03211 8.6346 2.16663 6.33341 2.16663C4.03223 2.16663 2.16675 4.03211 2.16675 6.33329C2.16675 8.63448 4.03223 10.5 6.33341 10.5Z" stroke="white" stroke-opacity="0.5" stroke-width="3" stroke-linecap="round" stroke-linejoin="round"/>
</svg>
