<svg width="37" height="50" viewBox="0 0 37 50" fill="none" xmlns="http://www.w3.org/2000/svg">
<path d="M18.5 50C17.8833 50 17.3548 49.8333 16.9143 49.5C16.4738 49.1667 16.1435 48.7292 15.9232 48.1875C15.0863 45.8542 14.0292 43.6667 12.7518 41.625C11.5185 39.5833 9.77857 37.1875 7.53214 34.4375C5.28571 31.6875 3.45774 29.0625 2.04821 26.5625C0.682738 24.0625 0 21.0417 0 17.5C0 12.625 1.78393 8.5 5.35179 5.125C8.96369 1.70833 13.3464 0 18.5 0C23.6536 0 28.0143 1.70833 31.5821 5.125C35.194 8.5 37 12.625 37 17.5C37 21.2917 36.2292 24.4583 34.6875 27C33.1899 29.5 31.45 31.9792 29.4679 34.4375C27.0893 37.4375 25.2833 39.9375 24.05 41.9375C22.8607 43.8958 21.8696 45.9792 21.0768 48.1875C20.8565 48.7708 20.5042 49.2292 20.0196 49.5625C19.5792 49.8542 19.0726 50 18.5 50ZM18.5 23.75C20.35 23.75 21.9137 23.1458 23.1911 21.9375C24.4685 20.7292 25.1071 19.25 25.1071 17.5C25.1071 15.75 24.4685 14.2708 23.1911 13.0625C21.9137 11.8542 20.35 11.25 18.5 11.25C16.65 11.25 15.0863 11.8542 13.8089 13.0625C12.5315 14.2708 11.8929 15.75 11.8929 17.5C11.8929 19.25 12.5315 20.7292 13.8089 21.9375C15.0863 23.1458 16.65 23.75 18.5 23.75Z" fill="#ABABAB"/>
</svg>
