<svg width="51" height="52" viewBox="0 0 51 52" fill="none" xmlns="http://www.w3.org/2000/svg">
<path d="M49.8694 44.8726C49.8694 44.8726 46.6399 48.0446 45.8484 48.9745C44.5592 50.3503 43.0402 51 41.0488 51C40.8574 51 40.6531 51 40.4616 50.9873C36.6704 50.7452 33.1473 49.2675 30.505 48.0064C23.28 44.5159 16.9359 39.5605 11.6639 33.2803C7.3111 28.0446 4.40069 23.2038 2.47319 18.0064C1.28605 14.8344 0.852039 12.3631 1.04351 10.0318C1.17116 8.5414 1.74559 7.30573 2.80508 6.24841L7.15792 1.90446C7.7834 1.31847 8.44718 1 9.09819 1C9.90238 1 10.5534 1.48408 10.9619 1.89172C10.9746 1.90446 10.9874 1.9172 11.0002 1.92994C11.7788 2.65605 12.5192 3.40764 13.2979 4.21019C13.6936 4.61784 14.102 5.02548 14.5105 5.44586L17.9953 8.92357C19.3484 10.2739 19.3484 11.5223 17.9953 12.8726C17.6252 13.242 17.2677 13.6115 16.8976 13.9682C15.8253 15.0637 16.6676 14.2231 15.5571 15.2167C15.5315 15.2422 15.506 15.2549 15.4933 15.2804C14.3955 16.376 14.5997 17.446 14.8295 18.1721C14.8422 18.2104 14.855 18.2486 14.8678 18.2868C15.7741 20.4779 17.0506 22.5416 18.9908 25.0002L19.0036 25.0129C22.5267 29.3441 26.2413 32.7199 30.3389 35.3059C30.8622 35.6371 31.3984 35.9046 31.909 36.1594C32.3685 36.3887 32.8025 36.6053 33.1727 36.8346C33.2237 36.86 33.2748 36.8982 33.3259 36.9237C33.7599 37.1403 34.1684 37.2422 34.5896 37.2422C35.6491 37.2422 36.3129 36.5798 36.5299 36.3632L39.032 33.8662C39.466 33.4331 40.1553 32.9108 40.9595 32.9108C41.7509 32.9108 42.4019 33.4076 42.7976 33.8408C42.8104 33.8535 42.8104 33.8535 42.8232 33.8662L49.8566 40.8853C51.1714 42.1847 49.8694 44.8726 49.8694 44.8726Z" stroke="#ABABAB" stroke-linecap="round" stroke-linejoin="round"/>
</svg>
