<svg width="50" height="50" viewBox="0 0 34 38" fill="none" xmlns="http://www.w3.org/2000/svg">
<path d="M26.5834 6.125C25.1596 4.49901 24.3749 2.41125 24.3751 0.25H17.9376V26.0833C17.889 27.4816 17.2991 28.8064 16.2924 29.7781C15.2857 30.7498 13.9409 31.2925 12.5417 31.2917C9.58342 31.2917 7.12508 28.875 7.12508 25.875C7.12508 22.2917 10.5834 19.6042 14.1459 20.7083V14.125C6.95842 13.1667 0.666748 18.75 0.666748 25.875C0.666748 32.8125 6.41675 37.75 12.5209 37.75C19.0626 37.75 24.3751 32.4375 24.3751 25.875V12.7708C26.9855 14.6455 30.1196 15.6513 33.3334 15.6458V9.20833C33.3334 9.20833 29.4168 9.39583 26.5834 6.125Z" fill="#BCBCBC"/>
</svg>
